<?xml version="1.0" encoding="UTF-8"?>
<svg xmlns="http://www.w3.org/2000/svg" xmlns:xlink="http://www.w3.org/1999/xlink" version="1.1" id="LOGO" x="0px" y="0px" viewBox="0 0 1209.1 638.5" style="enable-background:new 0 0 1209.1 638.5;" xml:space="preserve">
<style type="text/css">
	.st0{fill:#F0A51D;}
	.st1{fill:#F4CD3E;}
	.st2{fill:#FFFFFF;}
	.st3{fill:#B34A1F;}
</style>
<g>
	<g>
		<g>
			<path d="M53.2,248.8c4.9,0,8.3,0.7,10.1,2.2c1.8,1.5,3.1,4.7,3.9,9.6l20.2,127.1l24.9-122.7c0.8-3.6,2-5.9,3.7-7.1     c1.7-1.2,4.5-1.8,8.4-1.8h23.4c4.3,0,7.3,0.6,8.9,1.8c1.6,1.2,2.7,3.6,3.3,7.1l21.9,121.5l23.7-126c1-4.9,2.3-8.2,4-9.6     c1.7-1.5,5-2.2,9.9-2.2h27c5.1,0,7.7,2.4,7.7,7.1c0,1.8-0.4,4.6-1.2,8.6l-42.4,187.3c-0.8,3.2-2,5.3-3.6,6.4     c-1.6,1.1-4.4,1.6-8.6,1.6h-28.2c-4.3,0-7.3-0.5-8.9-1.6c-1.6-1.1-2.7-3.2-3.3-6.4l-24.6-124.2l-23.4,124.2     c-0.6,3.2-1.7,5.3-3.3,6.4c-1.6,1.1-4.5,1.6-8.9,1.6H71c-4.1,0-7-0.5-8.6-1.6c-1.6-1.1-2.8-3.2-3.6-6.4l-40-187.3     c-0.8-2.6-1.2-5.4-1.2-8.6c0-4.7,2.6-7.1,7.7-7.1H53.2z"></path>
			<path d="M436,388.1c0,24.3-6.7,43.1-20.2,56.5c-13.4,13.3-32.3,20-56.6,20h-3.6c-51.4,0-77.1-25.5-77.1-76.5v-128     c0-4.7,0.8-7.8,2.4-9.2c1.6-1.4,5-2.1,10.4-2.1h23.1c5.3,0,8.8,0.7,10.4,2.1c1.6,1.4,2.4,4.4,2.4,9.2v128.6     c0,21.9,9.3,32.9,27.9,32.9h4.7c18.4,0,27.6-11,27.6-32.9V260.1c0-4.7,0.8-7.8,2.4-9.2c1.6-1.4,5-2.1,10.4-2.1h23.1     c5.3,0,8.8,0.7,10.4,2.1c1.6,1.4,2.4,4.4,2.4,9.2V388.1z"></path>
			<path d="M512.6,336.5v112c0,4.5-0.8,7.6-2.5,9c-1.7,1.5-5.1,2.2-10.2,2.2h-20.2c-5.1,0-8.5-0.7-10.1-2.2c-1.6-1.5-2.4-4.5-2.4-9     V260.1c0-4.5,0.8-7.6,2.5-9c1.7-1.5,5.1-2.2,10.2-2.2h18.4c5.7,0,9.7,0.6,12,1.9c2.3,1.3,4.6,4.3,7,9l58.7,112V260.1     c0-4.5,0.8-7.6,2.5-9c1.7-1.5,5.1-2.2,10.2-2.2h19.9c5.1,0,8.5,0.7,10.2,2.2c1.7,1.5,2.5,4.5,2.5,9v188.5c0,4.5-0.8,7.6-2.5,9     c-1.7,1.5-5.1,2.2-10.2,2.2h-18.4c-5.7,0-9.7-0.6-12-1.9c-2.3-1.3-4.6-4.3-7-9L512.6,336.5z"></path>
			<path d="M832.3,447.1c0.6,1.4,0.9,2.4,1,3c0.1,0.6,0.1,1.6,0.1,3c0,4.5-2.8,6.8-8.3,6.8h-27.6c-4.3,0-7.3-0.6-8.9-1.9     c-1.6-1.3-3.3-4.7-5-10.2l-10.1-32.3h-70.8l-9.8,32.9c-1.6,5.1-3.1,8.3-4.6,9.6c-1.5,1.3-4.6,1.9-9.3,1.9h-25.8     c-5.5,0-8.3-2.3-8.3-6.8c0-3,0.4-4.9,1.2-5.9L709,258.9c1.2-4,2.7-6.6,4.6-8c1.9-1.4,4.8-2.1,8.7-2.1h34.4c4,0,6.8,0.6,8.6,1.9     c1.8,1.3,3.4,4,4.7,8.2L832.3,447.1z M714,377.4h48l-24.3-79.7L714,377.4z"></path>
		</g>
		<g>
			<path d="M793.2,252.8h-4.3c-0.4,0-0.7-0.1-0.8-0.2c-0.1-0.2-0.2-0.5-0.2-1V250c0-0.5,0.1-0.8,0.2-1c0.1-0.2,0.4-0.2,0.8-0.2h13.2     c0.4,0,0.7,0.1,0.8,0.2c0.1,0.2,0.2,0.5,0.2,1v1.6c0,0.5-0.1,0.8-0.2,1c-0.1,0.2-0.4,0.2-0.8,0.2h-4.3v14.5     c0,0.4-0.1,0.7-0.2,0.8c-0.2,0.1-0.5,0.2-0.9,0.2h-2.1c-0.5,0-0.8-0.1-0.9-0.2c-0.2-0.1-0.2-0.4-0.2-0.8V252.8z"></path>
			<path d="M814.3,262.7c-0.5,0-0.8-0.1-0.9-0.2c-0.1-0.1-0.3-0.4-0.6-0.9l-2.2-4.8v10.5c0,0.4-0.1,0.7-0.2,0.8     c-0.2,0.1-0.5,0.2-0.9,0.2h-1.9c-0.5,0-0.8-0.1-0.9-0.2c-0.2-0.1-0.2-0.4-0.2-0.8v-17.5c0-0.4,0.1-0.7,0.2-0.8     c0.2-0.1,0.5-0.2,0.9-0.2h1.9c0.5,0,0.9,0.1,1.1,0.2s0.4,0.4,0.6,0.9l3.9,8.5l3.9-8.5c0.2-0.5,0.4-0.8,0.6-0.9s0.6-0.2,1.1-0.2     h1.9c0.5,0,0.8,0.1,0.9,0.2c0.2,0.1,0.2,0.4,0.2,0.8v17.5c0,0.4-0.1,0.7-0.2,0.8c-0.2,0.1-0.5,0.2-0.9,0.2h-1.9     c-0.5,0-0.8-0.1-0.9-0.2c-0.2-0.1-0.2-0.4-0.2-0.8v-10.5l-2.2,4.8c-0.2,0.5-0.4,0.8-0.6,0.9c-0.2,0.1-0.5,0.2-0.9,0.2H814.3z"></path>
		</g>
	</g>
	<g>
		<g id="ORANGE">
			<path class="st0" d="M989,137.1c11-14.8,15.5-33.9,16.9-52c1.5-18.5-0.8-37.6-8.4-54.7c-1-2.2-3.2-3.6-5.6-4.2     c-2.4-3.3-6.6-4.3-10.3-3c-3.5-0.5-6.9,1.5-9.2,4.5c-5.8,7.5-11.2,15.3-16.4,23.3c-3,4.1-5.6,8.4-7.9,12.9     c-1.4,1.6-2.7,3.3-4.1,4.9c-3.8,4.7-3.5,11,1.9,14.4c7.8,5.1,13.4,12.2,17.1,20.7c1.4,3.3,5.4,4.8,8.9,4.4     c0.3,2.6,0.9,5.1,1.6,7.6c0.4,1.5,1.3,2.9,2.3,3.9c-0.9,3-1.9,5.6-2.8,7.7C968,138.6,981.9,146.6,989,137.1z"></path>
			<path class="st0" d="M1186.6,449.4c-0.1-0.4-0.3-0.7-0.7-0.9c0,0-0.1,0-0.1,0c-0.4-0.6-0.9-1.2-1.6-1.5c-0.4-0.2-0.8-0.3-1.2-0.2     c-0.1,0-0.3,0.1-0.4,0.2c-0.3-0.8-1.2-1.2-1.8-1.8c-0.8-0.7-1.5-1.4-2.1-2.2c-1.3-1.7-2.2-3.6-2.7-5.6c0,0,0,0,0,0     c0.4-1.8,0.3-3.6-0.6-5.4c0-1.3-0.4-2.8-1.2-4.2c-3.1-5.7-5-11.8-6.9-18c-0.9-2.9-2.6-4.7-4.6-5.7c-0.9-3.2-1.8-6.4-2.6-9.6     c-0.4-3.7-1.1-7.3-2-10.9c-0.7-5.1-1.4-10.2-2-15.2c-0.1-0.7-0.3-1.5-0.5-2.2c0.1-0.5,0.1-1,0-1.5c-0.6-11.2-2.2-22.3-4.7-33.2     c-0.6-2.5-2.1-4.2-4-5.3c0-0.1-0.1-0.2-0.1-0.4c0-1.5-0.1-2.9-0.2-4.4c-0.5-14.3-3.2-28.6-8.1-42.1c-3.6-10-8.3-19.7-14.1-28.6     c-6-9.1-13-18.4-23-23.3c-0.3-0.1-0.5-0.2-0.8-0.3c-6.8-8.9-15.9-16-26.2-20.4c-6.5-3.6-13.6-5.5-21.4-4.8     c-2.9,0.3-5.1,1.5-6.6,3.3c-4.7-1-9.6-1.6-14.6-1.7c-2.8-0.1-5.3,1.3-7,3.3c-4.3,0.1-8.6,0.2-12.9,0.2c-4.5-1.6-9.2-2.2-14-1.6     c-2.4,0.3-4.8,1.4-6.6,3c0,0,0,0-0.1-0.1c-1.8-2.1-4.5-2.9-7.2-2.6c0,0,0,0,0,0c-1.5-1.5-3.1-2.9-4.6-4.4     c-1.4-1.4-3.5,0.8-2.2,2.2c1.1,1.1,2.1,2.2,3.2,3.3c-0.8,0.4-1.5,0.9-2.1,1.5c-3.7,3.7-3.2,9.2,0,13c9.2,10.8,20,20.1,27.7,32.1     c1.2,9,2.3,18.1,3.5,27.1c-1.3,14.2-2.1,28.4-2.4,42.6c-4.8,9.6-7.6,20.2-5.5,30.9c0.4,1.9,1.1,3.8,2,5.6     c-0.9,6.7-2.1,13.4-3.5,20.1c-0.8,1.9-1.7,3.9-2.5,5.8c-2,4.5-1.3,9.8,3.3,12.5c4.1,2.4,10.3,1.1,12.5-3.3     c0.6-1.2,1.3-2.5,1.9-3.7c0.4-0.5,0.7-1,1-1.5c0.7-1.4,1.4-2.8,1.9-4.3c3.8-7.6,7.5-15.2,11.5-22.8c1.4-1.9,2.8-3.8,4.3-5.7     c5.3-4.5,10.7-8.9,16-13.4c-1.1,4.7-2,9.5-2.5,14.4c-0.1,0.7-0.1,1.4,0,2c-0.2,0.7-0.4,1.3-0.5,2c-0.5,1.9-0.5,3.6,0,5     c-4.7,18.1-6.9,36.9-6.6,55.7c0,2.5,1.1,4.6,2.6,6.1c0.4,3.4,0.8,6.8,1.3,10.2c0.4,2.4,1.5,4,3,5.1c3.4,19,7.8,37.8,13.3,56.4     c4.1,13.8,12,28.3,7.2,42.8c-4.8,14.6-11.7,28.7-19.1,42.2c-3.5,6.3,0.9,13.4,7.9,13.8c8.1,0.5,13.2-5.8,16.7-12.4     c3.7-6.9,7.3-13.9,10.4-21.1c6.5-14.7,11.6-30.2,11.8-46.5c0.2-16.5-5.9-31.1-12.5-45.9c-6.5-14.6-12.2-29.8-15-45.6     c-2.3-12.8-2.2-25.9,1-38.4c1-2,2-3.9,3.1-5.9c4.5-3.7,7.9-8.2,11.3-13.1c1.8-2.6,3.6-5.3,5.8-7.3c2,19.7,5.8,39,11.8,57.8     c0.5,1.5,1.2,2.7,2.2,3.6c0.1,0.3,0.2,0.7,0.3,1c0.2,0.5,0.4,0.9,0.6,1.4c1.6,5.3,3.4,10.5,5.6,15.6c0.8,1.8,1.9,3.4,3.3,4.6     c3.2,7,6.6,13.9,10.1,20.7c0.6,1.2,1.5,2.1,2.5,2.8c0.5,1.2,1.3,2.3,2.3,3.1c4,23.4,7.4,46.9,8.5,70.7c0.6,14-0.7,28.2,0.7,42.1     c1.1,11.8,5,35,22,30.8c5.1-1.3,7.3-6.5,6.4-11.3c-3.6-20.4-6.8-40.8-9.2-61.4c-0.2-1.8-0.8-3.6-1.7-5.1     c-0.2-3.2-0.4-6.5-0.6-9.7c-1.8-22-5.2-43.8-9-65.5c-0.2-3.8-0.4-7.6-0.6-11.4c1.4-1.5,2.2-3.5,2-6c-0.8-8.2-1.4-16.3-1.8-24.5     c0.1-0.1,0.2-0.2,0.3-0.3c4.5,7.3,9.9,14,16,20.1c3,3,6.5,3.2,9.5,2c3.1,2.6,6.6,4.6,10.4,6c0.3,0.1,0.5,0.1,0.8,0     c-0.1,0.3-0.2,0.7-0.2,1c0,0.4,0.2,0.8,0.4,1.1c0.3,0.3,0.7,0.5,1.1,0.4c0.4,0,0.8-0.1,1.1-0.4c0.2-0.2,0.3-0.5,0.4-0.8     c0.3,0,0.5,0.1,0.8,0.1c0.5,0.1,0.9-0.3,1.2-0.6c0.1-0.1,0.1-0.2,0.2-0.3c0.1-0.1,0.2-0.3,0.3-0.4     C1186.6,450.1,1186.7,449.8,1186.6,449.4z M1158.5,600.4C1159.2,600.7,1158.8,601,1158.5,600.4L1158.5,600.4z"></path>
		</g>
		<path id="YELLOW" class="st1" d="M1029.8,567.4c-2.5-14-2.4-28.6-4.1-42.8c-3-25-5.1-50.8-12.5-74.9c-0.5-5.6-0.9-11.2-1.3-16.8    c-0.2-3.1-1.7-5.3-3.7-6.7c-0.3-8.1-0.4-16.2-0.4-24.2c0-6-4.9-8.7-9.5-8.3c0.9-1.8,1.3-3.9,0.9-6.1c-0.7-3.3-1.1-6.6-1.4-9.9    c0.5-0.7,0.8-1.6,1.1-2.5c2.3-8.5,2.7-16.8,1.7-25.5c2.4-10.7,3.9-21.5,4.6-32.4c0.7-6,1.3-12,1.6-18c0.4-0.7,0.7-1.5,0.9-2.4    c5.2-21.8-3.4-42-10.4-62.3c-1.3-3.8-4.4-5.6-7.5-5.9c-0.6-1.9-1.2-3.8-1.8-5.7c-0.9-3.2-3.1-5.1-5.6-5.8    c-2.9-6.2-5.7-12.4-8.4-18.7c1-1,1.8-2.2,2-3.7c0.2-1.1,0.3-2.2,0.5-3.3c1.4-1,2.4-2.5,2.7-4.6c2.8-17.8,4.8-35.6,6-53.6    c0.1-0.6,0.2-1.3,0.3-1.9c0.2-1.1,0.2-2.3-0.1-3.4c-0.2-2-1.1-3.6-2.5-4.8c-0.9-0.9-1.9-1.7-3-2.2c-0.2-1.3-0.3-2.5-0.3-3.8    c0-3.4-1.6-5.7-3.8-7.1c-0.6-3.9-3.2-7.2-7.4-7.7c-0.5-0.1-1.1-0.1-1.6,0c0-0.7,0-1.4,0-2.1c0-3.6-1.6-5.9-3.8-7.2    c-1.5-2.9-4.8-4.9-7.9-4.9c-0.3,0-0.6,0-0.9,0c0.5-4.3-1.7-9.2-6.2-9.8c-3.7-0.5-7.3-0.9-11-1c-1.7-1.4-3.9-2.2-6.3-1.9    c-1.2-0.2-2.4-0.2-3.8,0.1c-3.4,0.8-6.6,2-9.6,3.5c-0.4,0.1-0.8,0.2-1.2,0.2c-1.6,0.4-2.9,1.1-3.8,2.1c-2.1-3.7-6.2-4.8-9.8-3.9    c-4.3-8-8.6-16-13.5-23.6c-2.2-4.5-4.3-9-6.3-13.6c-0.8-2-2.3-2.8-3.8-2.9c-1.9-3.1-7.2-4.3-9.8-0.3c-17.2,26-15.5,58.6-9.4,87.8    c0.4,2.1,1.9,3.3,3.6,3.8c0.1,0.4,0.3,0.9,0.5,1.3c0.8,1.7,1.6,3.4,2.3,5.1c0.5,1.2,1.7,2.2,2.9,2.9c-0.5,1-0.8,2.1-0.9,3.4    c-0.3,5.7-0.3,11.3-0.1,17c-2.2,2.1-3,5.2-2.4,8.5c3.3,18.5,8.8,36.5,16.1,53.8c0,0.1,0,0.3,0.1,0.4c-1.1,9-1.1,18-0.8,27    c-0.3,1.2-0.5,2.5-0.7,3.7c-1,6.5-1.9,13.1-2.7,19.6c-3.2,11-5.2,22.3-6.2,33.7c-4.4,20.2-4.2,41.3,0.7,61.5    c0.2,0.7,0.4,1.3,0.7,1.9c1.1,6.6,2.7,13.1,4.6,19.5c0.8,2.5,2.4,4.2,4.4,5.1c0,0.1,0,0.1,0,0.2c0.1,0.7,0.2,1.3,0.4,1.9    c0.3,1.6,0.6,3.2,0.9,4.9c0,1.9,0,3.7-0.1,5.5c-0.3,9.1-0.6,18.2-0.8,27.4c-0.4,17.6-0.8,35.2-1.5,52.8    c-0.7,17.6-1.7,35.1-3.5,52.6c-0.9,8.9-2,17.8-3.3,26.7c-1.3,8.9-3.7,17.8-3.9,26.8c-0.1,5.1,3.9,8.2,8.4,8.5    c3.5,2,7.1,1.7,10.6-1.1c6.1-4.8,6.9-14.1,8.2-21.2c1.5-8.2,2.7-16.5,3.6-24.8c1.9-17,2.6-34.2,3.2-51.3    c1.3-34.2,4.2-67.9,9.6-101.8c1.1-7.1,2.1-14.4,3.3-21.6c0-0.1,0-0.1,0.1-0.2c21-8.5,45.3,8.1,64.8,16.4c1.1,1,2.4,1.6,3.6,1.9    c1.8,1.6,3.9,2.2,5.9,2.1c-0.4,1-0.6,2.1-0.7,3.4c0,12.9,0.3,25.7,1,38.6c0.1,1.8,0.6,3.3,1.4,4.5c0,0,0,0,0,0    c-0.1,3.5-0.2,7.5,0.8,10.5c1.7,30.4,2.8,60.7,4.8,91.1c1.1,17.3,1.3,35.5,5.2,52.4c1.5,6.8,5.5,13.5,12.7,15.4    c1.1,0.3,2.2,0.4,3.3,0.4c0.9,1.3,2.3,2.3,3.8,2.8c1.5,0.6,3.1,0.8,4.5,0.6c0.4-0.1,0.8-0.2,1.2-0.3c2.9-0.7,5.4-2.6,6-5.9    c0.2-1.3,0.4-2.7,0.4-4.3C1036.2,593.8,1032.2,580.8,1029.8,567.4z M993.3,452.4c0,0.1,0,0.3,0.1,0.4    C993.2,453.2,993.1,453.1,993.3,452.4z"></path>
		<g id="EYES">
			<path class="st2" d="M961.7,125.9c-0.9-1-2.7-1-3.6,0c-0.7-0.2-1.4-0.4-2.1-0.5c-0.3-0.4-0.7-0.7-1.3-0.8c-4.6-1-9.4,0.9-12,4.9     c-0.2,0.2-0.2,0.5-0.3,0.7c-0.1,0.1-0.2,0.2-0.3,0.3c-1.5,1.7-0.4,4.1,1.8,4.3c0.4,0,0.8,0.1,1.2,0.1c0,0,0,0,0.1,0     c0.2,0,0.4,0,0.5,0.1c0.9,0.1,1.8,0.3,2.7,0.4c1.6,0.2,3.2,0.1,4.8-0.2c1.9-0.4,3.7-1.3,5.3-2.4     C960.8,131.3,964.4,128.7,961.7,125.9z"></path>
			<path class="st2" d="M908.3,127.7c-0.8-0.7-1.6-1.3-2.5-1.9c-0.2-0.3-0.5-0.6-0.8-0.8c-0.3-0.2-0.6-0.3-0.9-0.3     c-0.2-0.1-0.3-0.2-0.5-0.3c-0.2-0.2-0.4-0.4-0.6-0.6c-1.8-1.2-3.9-1.9-6.1-2.1c-2.2-0.2-4.6,0.8-5.4,3c-0.9,2.5,1.2,4.6,3.2,5.6     c0.1,0.1,0.3,0.1,0.4,0.2c1.9,1.8,4.3,3.1,6.9,3.5c1.7,0.3,3.5,0.3,5.1-0.3c1.4-0.5,2.5-1.7,2.4-3.2c0-0.7-0.3-1.3-0.6-1.9     C908.8,128.3,908.6,128,908.3,127.7z"></path>
		</g>
		<g id="LINES">
			<path class="st3" d="M1190.8,449.9c-7.1-6.2-11.1-14.8-14.6-23.4c-4-10.1-7.5-20.3-10.6-30.8c-6-20.9-9.8-42.2-11.9-63.8     c-1-10.2-2.1-20.4-4.6-30.3c-0.3-1.6-0.6-3.2-0.9-4.8c0.1-0.4,0.1-0.8,0-1.3c-3.1-13.2-8.3-26-15.2-37.6     c-6.9-11.7-15.5-22.3-25.6-31.5c-10.8-9.8-23.4-18.7-37.5-22.9c-15.5-4.6-31.9-3-47.7-1.3c-8.1,0.9-16.2,1.9-24.3,2.1     c-5.7,0.2-12-0.1-16.9-3.4c-1-0.7-2-1.6-2.7-2.6c-0.2-0.3-0.5-0.6-0.8-0.8c0-0.2,0-0.4,0-0.7c0.6-4.8,3.1-10.2,4.6-15.1     c3.3-10.2,5-20.7,5.2-31.4c0.2-6.9,0-14.1-1.1-21.1c0.3-0.2,0.6-0.5,0.8-0.8c3.2-4.6,6.2-9.4,8.6-14.4c1.1-2.4,2.3-4.8,3.1-7.3     c1-3.1,1.4-6.4,1.7-9.6c1.3-13.8,2.5-27.8,1.6-41.7c-0.7-11.5-2.8-23.6-10.8-32.3c-2-2.1-4.5-4.2-7.4-4.7     c-3.3-0.6-6.1,0.9-8.3,3.3c-4.4,4.7-8.4,9.9-12.3,15c-8.8,11.4-16.6,23.5-23.4,36.1c-0.1,0.1-0.1,0.2-0.1,0.3     c-0.6-0.2-1.2-0.4-1.8-0.5c-0.2-0.1-0.4-0.1-0.6-0.1c0,0,0,0-0.1,0c-10-0.8-19.6,1.4-28.3,5.6c0,0,0,0,0-0.1     c-8.2-12.1-16.5-24.3-24.7-36.4c-4.1-6-8.1-12.1-12.2-18.1c-1.7-2.4-3.8-4.8-7-5.1c-3.2-0.3-5.6,1.8-7.3,4.3     c-3.6,5.4-5.5,12-6.9,18.3c-1.4,6-2.3,12.2-3,18.3c-1.2,12.1-0.9,24.5,1.2,36.5c2.4,13.4,7.5,26.4,15.1,37.8     c0.1,0.2,0.2,0.3,0.4,0.4c0,0.7,0,1.5,0,2.2c-0.8,7.6-0.4,15.4-0.4,23c-0.1,4.5,0,8.9,0.4,13.3c0.6,6.6,2.1,12.9,4.6,19.1     c2.3,5.7,5.2,11.5,6.2,17.6c1,6-0.2,12.4-2.4,18.1c-0.1,0.2-0.1,0.3-0.2,0.5c-0.2,0.5-0.4,1-0.6,1.5c-0.2,0.6-0.3,1.2-0.2,1.8     c-7,27-13.7,54.7-12.2,82.8c0.8,14.3,4.4,28.3,8,42.1c3.5,13.7,7.7,27.4,9.9,41.4c1,6,1.8,12,2.3,18.1c0.4,29-0.5,58-2.6,86.9     c-1.1,14.9-2.5,29.9-4.2,44.8c-0.8,7.5-1.7,15-2.7,22.5c-0.5,3.8-1,7.6-1.5,11.4c-0.5,3.4-1.2,6.8-1.3,10.2     c-0.1,2.9,0.4,6.1,2.6,8.2c2.5,2.4,6.1,2.5,9.1,1.1c3-1.5,4.7-4.3,5.9-7.3c1.2-3.3,2-6.8,2.8-10.2c3.4-14.3,5.8-28.8,7.6-43.4     c3.6-29,4.8-58.3,7.3-87.4c1.2-14.5,2.8-29,5.1-43.4c1.2-7.1,2.5-14.2,4.1-21.3c0.8-3.6,1.7-7.2,2.7-10.7     c0.9-3.2,1.7-6.6,2.9-9.7c0.9-2.2,2.1-4.2,4.4-5.2c0.2-0.1,0.4-0.3,0.6-0.4c15.2-1.1,27.8,9.7,38.3,19.5     c5.8,5.4,11.6,11,18.3,15.4c3.3,2.2,6.8,4.1,10.6,5.1c1.7,0.4,3.4,0.7,5.2,0.7c-0.2,6.8-0.3,13.5-0.3,20.3     c0,17.2,0.7,34.3,2,51.4c1.2,17.2,3,34.3,5.1,51.4c2.1,17.2,4.5,34.3,7.1,51.4c1.3,8.5,2.6,16.9,3.9,25.4     c1,6.3,1.8,14.4,8.6,17.1c6.3,2.6,14.3-2.5,15.7-8.9c0.8-3.5,0.1-7-0.5-10.4c-0.7-3.8-1.3-7.6-1.9-11.4     c-2.4-15.4-4.6-30.8-6.9-46.2c-2.2-15-4.3-30.1-6.5-45.1c-2.4-16.7-5.2-33.3-8.1-49.9c-2.8-15.7-5.6-31.5-7.6-47.3     c13.2-6,19.4-21,27.2-32.5c4.1-6,8.6-11.6,13.6-16.9c-4,14.8-7,30-8.6,45.3c-1,9.2-0.6,18.1,1.6,27.1c2.1,8.8,5.2,17.4,8.2,25.9     c3,8.7,6.2,17.3,9.5,25.8c3.3,8.4,6.9,16.6,10.2,24.9c1.6,4.1,3,8.3,3.8,12.6c0.7,4.2,0.7,8.6,0.3,12.8     c-0.9,8.9-3.7,17.5-6.7,25.9c-3,8.6-6.3,17.1-9.7,25.6c-1.7,4.2-3.5,8.4-5.3,12.5c-0.9,2.1-2.2,4.3-1.2,6.6     c0.7,1.7,2.3,2.7,4,3.3c1.6,0.5,3.4,0.6,5.1,0.7c1.8,0.1,3.6,0.1,5.4-0.3c4.1-0.7,7-3.4,8.5-7.2c1.7-4.1,2.6-8.6,3.8-12.9     c1.3-4.5,2.6-9.1,3.9-13.6c2.5-8.8,5.3-17.6,7.3-26.5c1-4.4,1.7-9,1.8-13.5c0.1-4.6-0.5-9.1-1.3-13.6c-1.7-8.9-4.6-17.5-7.5-26.1     c-2.9-8.8-6-17.5-9-26.2c-2.9-8.6-5.9-17.2-8.3-26c-2.4-8.6-3.9-17.2-3.2-26.1c0.7-8.5,2.9-17,5.5-25.1c2.6-7.7,6-15,10.7-21.6     c1-1.4,2.1-2.9,3.4-4.1c1-0.9,2.4-2.1,3.8-1.8c0.3,0.1,0.5,0.1,0.8,0c2.2,6.2,4.3,12.4,6.5,18.7c0.7,2,1.4,3.9,2,5.9     c2,9.7,4.1,19.5,6.1,29.2c1.1,5.4,2.2,10.8,3.9,16c1.7,5.2,4,10.1,6.7,14.9c2.6,4.6,5.4,9.1,7.8,13.8c2.4,4.6,4.6,9.2,6.5,14     c3.9,9.7,7,19.7,9.1,29.9c2.4,11.5,3.5,23.2,3.5,34.9c0,0.4,0.1,0.7,0.2,1c-0.3,14.3,0.3,28.6,2.1,42.8     c1.1,8.4,2.4,16.8,4.2,25.1c0.8,3.6,1.6,7.1,4,10.1c2.1,2.6,5.3,4.1,8.6,4.6c3.3,0.5,8,0.6,10.4-2.1c2.6-3,1.1-7.7,0.5-11.2     c-1.4-8.4-2.8-16.9-4.1-25.3c-2.6-16.8-5-33.6-7.1-50.4c-1.6-12.7-3-25.4-4.3-38.1c0.1-0.3,0.2-0.6,0.1-0.9     c-1.6-18.4-2.6-36.8-3.1-55.3c-0.1-2.3-0.1-4.7-0.2-7c5.8,11.7,15.6,21.4,27.5,26.6c5.2,2.3,10.8,4.2,16.3,1.8     C1191.7,453.3,1191.9,450.9,1190.8,449.9z M1003.9,272c-3.4-12-8.5-23.4-13.3-34.9c-0.9-2.2-1.9-4.5-2.8-6.7     c0.9,1.2,1.9,2.3,2.8,3.5c6.7,8.4,11,17.9,13.3,28.4c1.3,6,1.9,12.1,2.1,18.3C1005.4,277.7,1004.7,274.8,1003.9,272z M963.3,44.9     c3.6-4.9,7.3-9.6,11.2-14.3c1-1.2,2-2.3,3-3.5c0.9-1,1.7-2.1,2.8-2.9c2-1.5,4.2-0.5,5.9,0.9c8.1,6.8,10.2,18.4,11,28.3     c1,13.2,0,26.4-1.1,39.5c-0.3,3.4-0.4,6.8-1.2,10.1c-0.6,2.8-1.8,5.5-3,8.1c-2,4.2-4.3,8.1-6.8,11.9c0-0.2-0.1-0.4-0.1-0.6     c-2.9-11-11.2-19.9-18.5-28.1c-4-4.5-7.9-9.1-12.5-13c-2.9-2.5-6.2-4.6-9.6-6.3C949.9,64.6,956.3,54.5,963.3,44.9z M852.2,66.2     c0.3-5.7,1-11.4,2-17.1c1.1-6,2.3-12,4.6-17.7c1-2.4,2.1-5.3,4-7.1c1.7-1.7,3.2-0.4,4.5,1.1c2,2.5,3.6,5.3,5.4,7.9     c2,2.9,3.9,5.8,5.9,8.6c8.7,12.9,17.4,25.8,26.2,38.6c-5,2.9-9.6,6.4-13.8,10.4c-6.1,5.8-11.5,12.6-16,19.7     c-3.4,5.4-6.8,11-8.7,17.1C854.9,109.5,851,87.7,852.2,66.2z M986.3,394.9c-7.1-3.6-13.1-9.2-18.8-14.6     c-11.5-10.8-24.2-22.8-40.8-23.8c-2-0.1-3.9,0-5.8,0.2c-1,0.1-1.8,0.6-2.3,1.4c-5.1,2.8-6.6,9.7-8,14.8c-1.9,7-3.6,14-5,21.1     c-2.9,14.1-4.8,28.4-6.3,42.7c-3,28.6-4.1,57.4-6.9,86.1c-1.4,14.2-3.1,28.4-5.7,42.4c-1.3,7.1-2.9,14.2-4.7,21.2     c-0.7,2.8-1.3,6.1-3.1,8.5c-1.1,1.4-3.8,2.8-5.2,1.1c-1.2-1.5-0.9-4.5-0.7-6.4c0.5-3.8,1.1-7.6,1.6-11.4c1-7.5,2-15.1,2.9-22.6     c1.7-14.6,3.2-29.3,4.4-43.9c1.8-21.6,2.8-43.3,3.2-65.1c0,0,0,0,0-0.1c1.2-10.2,1-20.5,0.1-30.7c0-1.3,0-2.7,0-4     c0-0.6-0.2-1.1-0.5-1.5c-0.3-2.4-0.6-4.8-0.9-7.2c-1-7.4-2.4-14.7-4.2-21.9c-1.6-6.7-3.4-13.4-5.1-20.1     c-1.8-6.7-3.5-13.4-5.1-20.1c-1.6-6.9-3.2-13.9-3.9-21c-1.4-14.4-0.5-28.9,1.8-43.1c2.5-16,6.6-31.6,10.6-47.3c0-0.1,0-0.1,0-0.2     c2-5.2,3.2-10.7,3.1-16.4c-0.2-6.4-2.6-12.3-5-18.2c-2.6-6.1-4.9-12.2-5.8-18.9c-0.6-4.2-0.7-8.5-0.7-12.7c0,0,0-0.1,0-0.1     c0-1.2,0-2.3,0-3.5c0-1.3,0-2.6,0.1-3.9c0.1-6.3,0.2-12.7,0.3-19c0-0.2,0-0.4,0.1-0.6c0.4-3.3,1.1-6.8,2.4-10     c1.4-3.2,3.4-6.7,5.3-9.8c8.2-13.6,19.2-26.3,33.6-33.4c8-4,16.8-5.8,25.8-5.1c4.8,1.2,9.1,3.5,12.9,6.7c4.1,3.4,7.6,7.3,11,11.3     c3.9,4.4,7.9,8.7,11.3,13.4c3,4.1,6,8.6,7.4,13.2c2.7,8.7,2.9,18.2,2.8,27.2c-0.2,10.1-1.6,20-4.7,29.7     c-1.8,5.8-4.5,11.6-5.2,17.7c-0.5,4.4,0.8,8.4,2.6,12.3c5.8,20.4,16,39.3,22.6,59.4c4,12.3,5.9,25,6.1,37.9     c0.1,7.5-0.2,15-0.8,22.4c-0.1,1-0.2,2.1-0.3,3.1c-1,9.1-2.3,18.1-3.6,27.1c-0.1,0.8-0.2,1.5-0.3,2.3c-0.5,2.9-0.9,5.8-1.4,8.8     c-0.1,0.3-0.2,0.6-0.2,0.9c0,0.3,0,0.6-0.1,0.8c0,0,0,0.1,0,0.1c0,0.2,0,0.4,0,0.6c-0.7,8.2-1.3,16.3-1.6,24.5     C992.1,397.2,989.1,396.3,986.3,394.9z M1014.1,483.3c2.3,15.2,4.5,30.5,6.7,45.8c2.1,14.6,4.2,29.1,6.4,43.7     c1.2,7.9,2.4,15.9,3.6,23.8c0.5,3.2,1.3,6.4,1.5,9.6c0.1,2.9-0.7,5.3-3,7c-2,1.5-4.6,2.2-6.8,0.9c-2.2-1.4-3-4.2-3.6-6.6     c-0.8-3.6-1.3-7.4-1.8-11.1c-0.6-4.1-1.3-8.3-1.9-12.4c-2.5-16.6-5-33.1-7.1-49.8c-2.2-16.7-4-33.5-5.4-50.4     c-1.4-16.7-2.3-33.4-2.6-50.2c-0.2-10.6-0.1-21.3,0.2-31.9c0.2,0,0.3-0.1,0.5-0.1c1.4,10.9,3.2,21.7,5.1,32.6     C1008.5,450.6,1011.6,466.9,1014.1,483.3z M1052.9,593.7C1052.9,593.7,1052.9,593.7,1052.9,593.7     C1052.9,593.7,1052.9,593.7,1052.9,593.7z M1052.9,593.7C1052.5,593.6,1052.9,593.6,1052.9,593.7L1052.9,593.7z M1073.1,354.8     c-2.6,3.1-4.8,6.5-6.8,10.1c-4,7.1-6.8,14.9-9,22.7c-2.3,8.4-4.1,17.3-4,26c0.1,8.9,2.3,17.6,4.9,26     c5.3,17.4,11.7,34.5,17.3,51.8c2.7,8.4,5.5,16.9,6.7,25.7c0.6,4.4,0.7,8.8,0.2,13.2c-0.5,4.3-1.5,8.5-2.6,12.7     c-2.4,9-5,17.9-7.5,26.8c-1.3,4.5-2.5,8.9-3.8,13.4c-0.6,2.1-1.2,4.3-1.9,6.4c-0.5,1.4-1.2,2.9-2.5,3.8c-2.6,1.7-6.5,1.3-9.4,0.9     c-0.2,0-1.2-0.2-1.5-0.3c-0.1,0-0.4-0.2-0.5-0.2c0.2-0.3,0.3-0.8,0.4-1c0.2-0.5,0.5-1.1,0.7-1.6c0.5-1.1,0.9-2.1,1.4-3.2     c3.6-8.4,7.1-16.9,10.3-25.5c6.1-16.3,13.1-34.1,10.1-51.8c-1.5-8.7-5.6-16.7-8.9-24.8c-3.4-8.3-6.7-16.7-9.8-25.1     c-3.1-8.4-6.1-16.9-8.9-25.5c-2.7-8.4-5.5-16.9-5.9-25.7c-0.5-9,0.9-18,2.4-26.8c1.5-8.9,3.3-17.7,5.5-26.4     c1.1-4.2,2.2-8.4,3.4-12.6c3.7-3.1,7.9-5.7,12.7-6.1c3.2-0.3,6.5,0.3,9.1,2.2c2.7,2.1,4.1,5.5,5.2,8.6c0.2,0.5,0.4,1,0.6,1.6     C1077.9,350.2,1075.2,352.3,1073.1,354.8z M1154.2,566.7c1.2,8.1,2.5,16.3,3.8,24.4c0.6,3.9,1.3,7.8,1.9,11.7     c0.3,1.7,0.7,3.5,0.9,5.3c0.1,0.5,0.2,1.3,0,1.8c-0.2,0.5-0.5,0.6-1.1,0.7c-2.6,0.6-5.8,0.3-8.2-1c-2.6-1.5-3.7-4.1-4.4-6.9     c-2-7.6-3.2-15.6-4.3-23.4c-2.5-17.8-3.2-35.8-2.3-53.7c0-0.8-0.2-1.3-0.6-1.7c-0.8-18.3-4.5-36.6-11-53.7     c-3.7-9.9-8.4-19.3-13.7-28.4c-2.7-4.6-5.5-9.2-7.4-14.2c-2-5.2-3.3-10.6-4.5-16c-2.3-10.7-4.5-21.4-6.7-32.1     c0-0.3,0-0.6-0.1-0.8c-0.1-0.2-0.1-0.4-0.2-0.5c-0.3-1.6-0.7-3.2-1-4.9c-0.1-0.7-0.6-1.2-1.2-1.5c-2.2-6.4-4.5-12.8-6.7-19.2     c-2.6-7.4-4.8-15.6-12.7-18.9c-7.3-3-15.5-0.4-21.6,4c-6.6,4.7-12.2,11-17.3,17.3c-5.2,6.5-9.7,13.4-14,20.5     c-4,6.6-8.2,13.5-14.8,17.9c-0.7,0.5-1.4,0.9-2.1,1.3c-0.1-0.7-0.2-1.4-0.2-2c0.1-0.3,0.2-0.7,0.2-1c-1.7-20.1,1.3-40.2,3-60.2     c1.1-10,2.1-20.1,2.8-30.1c1.6-22.3,1-46.7-12.4-65.7c-3.5-5-7.8-9.4-11.1-14.6c-2.7-4.4-4.6-9.3-6.4-14.1     c2.9,1.4,6.2,2.2,9.6,2.6c7.2,0.8,14.6-0.1,21.8-0.8c15.7-1.6,31.9-4.4,47.7-1.9c14.7,2.3,27.7,10,39.1,19.3     c10.3,8.5,19.3,18.6,26.6,29.8c6.9,10.7,12.3,22.3,15.9,34.5c-0.1,0.4-0.1,0.8,0.1,1.2c0.4,1.4,0.8,2.8,1.1,4.2     c-0.2,0.5-0.3,1.1-0.1,1.8c0.6,1.8,1.1,3.6,1.6,5.4c2.2,12.8,2.1,26,1.2,39c-1.2,17.3-3.9,34.6-4.8,51.9     c-0.5,9.7-0.4,19.4,0.8,29c0,0,0,0,0,0c0.2,15.1,0.8,30.2,1.8,45.3c-0.4,0.4-0.6,1-0.5,1.5C1145.5,502,1149.4,534.5,1154.2,566.7     z M1166.3,441.7c-6.1-4.5-11.1-10.5-14.7-17.1c-1.8-3.3-3.1-6.7-4.1-10.3c-0.9-3.5-1.6-7-2-10.6c0-0.3-0.1-0.6-0.2-0.9     c0.1-10.8,1.1-21.5,2.2-32.2c0.9-8.4,1.9-16.9,2.6-25.3c0.7,5.6,1.5,11.3,2.5,16.9c3.8,21.6,9.8,42.9,17.8,63.4     c3.4,8.6,7.1,17.5,13.3,24.5c-2.6-0.3-5.2-1.4-7.3-2.4C1172.8,446,1169.4,444.1,1166.3,441.7z"></path>
			<path class="st3" d="M946.9,140.1c1.5,0.3,3,0.5,4.5,0.3c1.5-0.2,2.9-0.9,4.2-1.6c4-2.2,11.2-6.2,8.7-11.7     c-0.8-2.9-3.4-5.5-6.2-6.4c-4-1.1-8.6,1.2-12.1,3c-3.8,1.9-7.5,5-9.3,8.9c-1.9,4-1.4,8.4-1.5,12.7c0,2.6-0.1,5.1,0.1,7.7     c0.1,1.2,0.3,2.3,0.5,3.5c-0.5-0.1-1-0.1-1.4-0.2c-5.5-0.9-11.1-1-16.6-0.1c-2.7,0.5-5.6,1.2-7.2,3.7c-1.7,2.8,0,5.4,1.9,7.5     c2.8,3,6.3,5.3,10.1,6.7c0,0,0,0.1,0.1,0.1c0.1,0.1,0.3,0.2,0.4,0.3c0,0,0,0,0,0.1c0,0,0,0.1,0,0.1c0,0,0,0.1,0.1,0.1     c0,0.1,0.1,0.2,0.1,0.4c0,0.2,0.1,0.3,0.1,0.5c0,0,0,0.1,0,0.2c0,0.3,0.1,0.5,0.1,0.8c0,0.8,0,1.6,0,2.4c-0.3,0.1-0.7,0.3-1,0.4     c0,0-0.1,0-0.1,0c-0.2,0-0.5,0.1-0.7,0.1c-0.4,0.1-0.7,0.3-1,0.5c-1,0.4-2,0.7-3,1.1c-2.9,1-5.8,2-8.8,2.8     c-2.7,0.8-5.6,1.6-8.5,1.8c-1.9,0.1-4.2-0.6-4.5-2.8c-0.2-1.4-1-2.5-2.5-2.5c-1.2,0-2.7,1.2-2.5,2.5c0.4,3.4,2.4,6.2,5.7,7.4     c3.4,1.3,7.6,0,11-0.8c3.5-0.9,7-1.9,10.4-3.1c0.5-0.2,1-0.4,1.5-0.5c0.2,0,0.4,0,0.6,0c0.7-0.3,1.3-0.4,2-0.6     c0.2,0,0.5,0.1,0.7,0c1.9-0.3,3.7-0.4,5.5-0.2c1.4,0.1,2.8,0.1,4.1,0c3.6,1.3,7.4,2.4,11.1,3.3c1.9,0.4,3.8,0.8,5.7,1.1     c2,0.3,4.1,0.7,6.1,0.8c4.2,0.1,7.1-3.5,9-6.9c1.6-2.9-2.8-5.4-4.4-2.6c-0.7,1.2-1.4,2.3-2.4,3.3c-0.9,1-1.7,1.1-3,0.9     c-3.1-0.3-6.1-0.9-9.1-1.5c-2.8-0.6-5.6-1.4-8.3-2.3c-1.9-0.9-3.7-1.9-5.4-3c-0.1-0.2-0.1-0.5-0.2-0.7c-0.1-1.2-0.1-2.5,0.2-3.7     c3.1-1.9,5.8-4.4,7.8-7.5c1-1.5,2.3-3.6,2.3-5.6c0-0.2,0-0.5-0.1-0.7c-1-4-1.5-7.9-1.5-11.9c0-1.8,0.1-3.7,0-5.5     c0-1.2-0.1-2.6,0-3.9C942.5,139.2,944.7,139.7,946.9,140.1z M946.5,129.5c2.6-1.8,5.6-3.2,8.7-3.7c1.5-0.2,2.4,0,3.5,1.3     c-0.1-0.1,0.3,0.4,0.4,0.5c0.1,0.2,0.2,0.3,0.3,0.5c0,0,0.2,0.4,0.2,0.6c0.1,0.2,0.1,0.4,0.2,0.6c0,0,0,0,0,0.1     c0,0-0.3,0.5-0.3,0.6c-0.5,0.7-1.2,1.2-1.9,1.7c-1.7,1.2-3.6,2.4-5.5,3.3c-1.8,0.8-3.6,0.3-5.5-0.1c-1.5-0.3-3.1-0.7-4.6-1     C943.1,132.1,944.8,130.6,946.5,129.5z M935.1,163.9c-1.9,2.7-4.5,4.8-7.4,6.4c-3.2-0.7-6.3-2-9-4.1c-0.7-0.5-1.4-1.1-2-1.8     c-0.5-0.5-1.4-1.2-1.7-1.9c0,0,0-0.1,0-0.1c0,0,0.1,0,0.1-0.1c0.2-0.1,0.4-0.3,0.6-0.4c0.9-0.4,2-0.6,3-0.7     c4-0.8,8.2-0.8,12.3-0.3c0.9,0.1,1.8,0.2,2.7,0.4c0.5,0.1,1,0.2,1.6,0.3c0.3,0.1,0.6,0.2,0.9,0.3     C935.9,162.6,935.5,163.3,935.1,163.9z"></path>
			<path class="st3" d="M905.2,137.6c2.6-0.7,5.1-1.6,7.5-2.6c1.7,0.3,3.7-1,3.1-3.1c-0.9-3-3-5.6-5.1-7.7c-2.1-2.1-4.6-3.8-7.4-4.9     c-5.5-2.2-12-1.2-16.4,2.9c-0.7,0.6-0.9,1.3-0.8,2c-0.5,0.8-0.5,1.8-0.1,2.7c2.2,4.4,6.5,7.8,10.8,10     C899.7,138.3,902.3,138.4,905.2,137.6z M891.1,125.3c3-2.4,7.3-2.6,10.9-1.1c1.9,0.8,3.6,2,5,3.5c0.9,0.9,1.9,1.9,2.7,3.1     c-1.5,0.6-3,1.1-4.5,1.6c-1,0.3-2,0.7-3,0.7c-1.1,0.1-2-0.3-3-0.8C896,130.6,893,128.4,891.1,125.3z"></path>
			<path class="st3" d="M940,120.6c0.9-0.6,1.9-1.1,2.8-1.5c0.9-0.4,1.9-0.7,2.9-1c1.3-0.3,2.2-1.8,1.8-3.1     c-0.4-1.3-1.7-2.1-3.1-1.8c-2.4,0.6-4.8,1.6-7,3c-0.6,0.3-1,0.9-1.2,1.5c-0.2,0.6-0.1,1.4,0.3,2     C937.2,120.9,938.8,121.4,940,120.6z"></path>
			<path class="st3" d="M908.1,117.9c0.8,0.2,1.6,0.4,2.4,0.7c0.9,0.4,1.8,0.9,2.6,1.5c-0.1,0-0.1-0.1-0.2-0.1     c0.5,0.4,1,0.7,1.7,0.7c0.6,0,1.4-0.3,1.8-0.7c0.4-0.5,0.8-1.1,0.7-1.8c0-0.6-0.2-1.4-0.7-1.8c-1-0.8-2.1-1.5-3.3-2.1     c-1.2-0.5-2.4-1-3.7-1.2c-0.7-0.1-1.3-0.1-2,0.3c-0.5,0.3-1,0.9-1.2,1.5c-0.1,0.7-0.1,1.4,0.3,2     C907,117.2,907.5,117.8,908.1,117.9z"></path>
		</g>
	</g>
</g>
</svg>
